<svg width="480" height="480" viewBox="0 0 480 480" fill="none" xmlns="http://www.w3.org/2000/svg">
<rect width="480" height="480" rx="100" fill="#3C50E0"/>
<path d="M378 219C378 196.909 360.091 179 338 179V179C315.909 179 298 196.909 298 219V399H378V219Z" fill="#FAFAFA"/>
<path d="M337.465 192.83C345.396 192.83 352.482 189.209 357.159 183.53L338.934 177.195C338.19 176.936 337.38 176.937 336.636 177.195L317.915 183.701C322.593 189.281 329.614 192.83 337.465 192.83Z" fill="#3C50E0"/>
<path d="M272 105H278V163C278 164.657 276.657 166 275 166V166C273.343 166 272 164.657 272 163V105Z" fill="#FAFAFA"/>
<circle cx="338" cy="146" r="40" fill="#FAFAFA"/>
<g filter="url(#filter0_d_14_93)">
<path d="M338.172 78.1141L270.718 101.555C269.822 101.867 269.822 103.133 270.718 103.445L338.172 126.886C338.384 126.96 338.616 126.96 338.828 126.886L406.282 103.445C407.178 103.133 407.178 101.867 406.282 101.555L338.828 78.1141C338.616 78.0402 338.384 78.0402 338.172 78.1141Z" fill="#FAFAFA"/>
<path d="M338.172 78.1141L270.718 101.555C269.822 101.867 269.822 103.133 270.718 103.445L338.172 126.886C338.384 126.96 338.616 126.96 338.828 126.886L406.282 103.445C407.178 103.133 407.178 101.867 406.282 101.555L338.828 78.1141C338.616 78.0402 338.384 78.0402 338.172 78.1141Z" stroke="#FAFAFA" stroke-width="5"/>
</g>
<rect width="80" height="90" rx="13" transform="matrix(-1 0 0 1 178 309)" fill="#FAFAFA"/>
<path d="M124.75 309C122.363 309 120.074 309.948 118.386 311.636C116.698 313.324 115.75 315.613 115.75 318V323.805C117.833 322.968 120.115 322.5 122.5 322.5H149.5C151.813 322.497 154.105 322.94 156.25 323.805V318C156.25 315.613 155.302 313.324 153.614 311.636C151.926 309.948 149.637 309 147.25 309H124.75ZM122.5 385.5C120.187 385.503 117.895 385.06 115.75 384.195V390C115.75 392.387 116.698 394.676 118.386 396.364C120.074 398.052 122.363 399 124.75 399H147.25C149.637 399 151.926 398.052 153.614 396.364C155.302 394.676 156.25 392.387 156.25 390V384.195C154.105 385.06 151.813 385.503 149.5 385.5H122.5Z" fill="#3C50E0"/>
<path opacity="0.3" d="M122.5 327C118.92 327 115.486 328.422 112.954 330.954C110.422 333.486 109 336.92 109 340.5V367.5C109 371.08 110.422 374.514 112.954 377.046C115.486 379.578 118.92 381 122.5 381H149.5C153.08 381 156.514 379.578 159.046 377.046C161.578 374.514 163 371.08 163 367.5V358.5C164.193 358.5 165.338 358.026 166.182 357.182C167.026 356.338 167.5 355.193 167.5 354V349.5C167.5 348.307 167.026 347.162 166.182 346.318C165.338 345.474 164.193 345 163 345V340.5C163 336.92 161.578 333.486 159.046 330.954C156.514 328.422 153.08 327 149.5 327H122.5Z" fill="#3C50E0"/>
<rect x="111.5" y="329.5" width="49" height="49" rx="10.5" stroke="#3C50E0" stroke-width="5"/>
<path d="M142.481 340C144.898 340 146.922 340.911 148.554 342.734C150.186 344.556 151.001 346.723 151 349.235C151 349.678 150.976 350.115 150.928 350.547C150.879 350.978 150.795 351.403 150.674 351.821H141.611L139.183 348.053H136.573L134.615 354.406L132.911 351.821H122.326C122.205 351.402 122.121 350.977 122.072 350.547C122.024 350.116 122 349.691 122 349.272C122 346.735 122.81 344.556 124.429 342.734C126.048 340.911 128.066 340 130.483 340C131.643 340 132.736 340.234 133.764 340.702C134.791 341.17 135.703 341.822 136.5 342.66C137.273 341.822 138.174 341.17 139.201 340.702C140.229 340.234 141.322 340 142.481 340ZM136.464 368L124.465 355.699C124.32 355.551 124.187 355.404 124.066 355.256C123.945 355.108 123.825 354.948 123.704 354.776H131.353L133.854 358.58H136.428L138.385 352.19L140.053 354.776H149.26L148.897 355.219L148.535 355.662L136.464 368Z" fill="#3C50E0"/>
<rect x="-5" y="5" width="70" height="151" rx="9" transform="matrix(-1 0 0 1 268 238)" stroke="#FAFAFA" stroke-width="10"/>
<mask id="path-13-inside-1_14_93" fill="white">
<rect x="213" y="294" width="18.6023" height="50.0063" rx="3"/>
</mask>
<rect x="213" y="294" width="18.6023" height="50.0063" rx="3" stroke="#FAFAFA" stroke-width="10" mask="url(#path-13-inside-1_14_93)"/>
<mask id="path-14-inside-2_14_93" fill="white">
<rect x="213" y="294" width="18.6023" height="38.6049" rx="3"/>
</mask>
<rect x="213" y="294" width="18.6023" height="38.6049" rx="3" stroke="#FAFAFA" stroke-width="10" mask="url(#path-14-inside-2_14_93)"/>
<mask id="path-15-inside-3_14_93" fill="white">
<rect x="226.402" y="296.6" width="18.6023" height="47.406" rx="3"/>
</mask>
<rect x="226.402" y="296.6" width="18.6023" height="47.406" rx="3" stroke="#FAFAFA" stroke-width="10" mask="url(#path-15-inside-3_14_93)"/>
<mask id="path-16-inside-4_14_93" fill="white">
<rect x="226.402" y="296.6" width="18.6023" height="33.0042" rx="3"/>
</mask>
<rect x="226.402" y="296.6" width="18.6023" height="33.0042" rx="3" stroke="#FAFAFA" stroke-width="10" mask="url(#path-16-inside-4_14_93)"/>
<mask id="path-17-inside-5_14_93" fill="white">
<rect x="238.203" y="297.587" width="16.4336" height="47.406" rx="3" transform="rotate(-11.7467 238.203 297.587)"/>
</mask>
<rect x="238.203" y="297.587" width="16.4336" height="47.406" rx="3" transform="rotate(-11.7467 238.203 297.587)" stroke="#FAFAFA" stroke-width="10" mask="url(#path-17-inside-5_14_93)"/>
<mask id="path-18-inside-6_14_93" fill="white">
<rect x="238.189" y="297.62" width="16.4336" height="35.6845" rx="3" transform="rotate(-11.7467 238.189 297.62)"/>
</mask>
<rect x="238.189" y="297.62" width="16.4336" height="35.6845" rx="3" transform="rotate(-11.7467 238.189 297.62)" stroke="#FAFAFA" stroke-width="10" mask="url(#path-18-inside-6_14_93)"/>
<rect x="217" y="377" width="41" height="8" rx="4" fill="#FAFAFA"/>
<path d="M102.852 254.442C96.9938 248.585 96.9938 239.087 102.852 233.229L218.081 118L239.294 139.213L124.065 254.442C118.207 260.3 108.709 260.3 102.852 254.442V254.442Z" fill="#FAFAFA"/>
<rect x="157" y="116.357" width="82.5745" height="30" transform="rotate(-0.247659 157 116.357)" fill="#FAFAFA"/>
<rect x="240.039" y="116.014" width="82.5745" height="30" transform="rotate(90.0268 240.039 116.014)" fill="#FAFAFA"/>
<defs>
<filter id="filter0_d_14_93" x="263.546" y="75.5587" width="149.907" height="61.8827" filterUnits="userSpaceOnUse" color-interpolation-filters="sRGB">
<feFlood flood-opacity="0" result="BackgroundImageFix"/>
<feColorMatrix in="SourceAlpha" type="matrix" values="0 0 0 0 0 0 0 0 0 0 0 0 0 0 0 0 0 0 127 0" result="hardAlpha"/>
<feOffset dy="4"/>
<feGaussianBlur stdDeviation="2"/>
<feComposite in2="hardAlpha" operator="out"/>
<feColorMatrix type="matrix" values="0 0 0 0 0 0 0 0 0 0 0 0 0 0 0 0 0 0 0.25 0"/>
<feBlend mode="normal" in2="BackgroundImageFix" result="effect1_dropShadow_14_93"/>
<feBlend mode="normal" in="SourceGraphic" in2="effect1_dropShadow_14_93" result="shape"/>
</filter>
</defs>
</svg>
